<?xml version="1.0" encoding="UTF-8" standalone="no"?><!-- Generator: Gravit.io --><svg xmlns="http://www.w3.org/2000/svg" xmlns:xlink="http://www.w3.org/1999/xlink" style="isolation:isolate" viewBox="0 0 302 302" width="302pt" height="302pt"><defs><clipPath id="_clipPath_HDt0k0CN31tnrXwgIZaSfgPKKH9KzgiU"><rect width="302" height="302"/></clipPath></defs><g clip-path="url(#_clipPath_HDt0k0CN31tnrXwgIZaSfgPKKH9KzgiU)"><mask id="_mask_x8ityMAfurQVlLWSgAkexxH3RQC7WH5k"><path d=" M 188.5 16.492 L 75.1 16.492 C 56.28 16.492 41 31.772 41 50.592 L 41 251.408 C 41 270.228 56.28 285.508 75.1 285.508 L 226.9 285.508 C 245.72 285.508 261 270.228 261 251.408 L 261 88.992 L 188.5 16.492 Z " fill-rule="evenodd" fill="white" stroke="none"/></mask><path d=" M 188.5 16.492 L 75.1 16.492 C 56.28 16.492 41 31.772 41 50.592 L 41 251.408 C 41 270.228 56.28 285.508 75.1 285.508 L 226.9 285.508 C 245.72 285.508 261 270.228 261 251.408 L 261 88.992 L 188.5 16.492 Z " fill-rule="evenodd" fill="none"/><path d=" M 188.5 16.492 L 75.1 16.492 C 56.28 16.492 41 31.772 41 50.592 L 41 251.408 C 41 270.228 56.28 285.508 75.1 285.508 L 226.9 285.508 C 245.72 285.508 261 270.228 261 251.408 L 261 88.992 L 188.5 16.492 Z " fill-rule="evenodd" fill="none" mask="url(#_mask_x8ityMAfurQVlLWSgAkexxH3RQC7WH5k)" vector-effect="non-scaling-stroke" stroke-width="28" stroke="rgb(255,255,255)" stroke-linejoin="round" stroke-linecap="round" stroke-miterlimit="3"/><line x1="85" y1="124.992" x2="179.5" y2="125.992" vector-effect="non-scaling-stroke" stroke-width="11" stroke="rgb(255,255,255)" stroke-linejoin="round" stroke-linecap="round" stroke-miterlimit="3"/><line x1="85" y1="161.244" x2="217" y2="161.244" vector-effect="non-scaling-stroke" stroke-width="11" stroke="rgb(255,255,255)" stroke-linejoin="round" stroke-linecap="round" stroke-miterlimit="3"/><line x1="85" y1="231" x2="217" y2="231" vector-effect="non-scaling-stroke" stroke-width="11" stroke="rgb(255,255,255)" stroke-linejoin="round" stroke-linecap="round" stroke-miterlimit="3"/><line x1="85" y1="195.748" x2="217" y2="195.748" vector-effect="non-scaling-stroke" stroke-width="11" stroke="rgb(255,255,255)" stroke-linejoin="round" stroke-linecap="round" stroke-miterlimit="3"/><g><g><line x1="132.25" y1="51" x2="148.25" y2="86.992" vector-effect="non-scaling-stroke" stroke-width="7" stroke="rgb(255,255,255)" stroke-linejoin="miter" stroke-linecap="round" stroke-miterlimit="3"/><line x1="164.25" y1="51" x2="148.25" y2="86.992" vector-effect="non-scaling-stroke" stroke-width="7" stroke="rgb(255,255,255)" stroke-linejoin="miter" stroke-linecap="round" stroke-miterlimit="3"/></g><line x1="132.125" y1="51" x2="132.125" y2="94.992" vector-effect="non-scaling-stroke" stroke-width="7" stroke="rgb(255,255,255)" stroke-linejoin="miter" stroke-linecap="round" stroke-miterlimit="3"/><line x1="165.25" y1="51" x2="165.25" y2="94.992" vector-effect="non-scaling-stroke" stroke-width="7" stroke="rgb(255,255,255)" stroke-linejoin="miter" stroke-linecap="round" stroke-miterlimit="3"/></g><g><line x1="85" y1="94.992" x2="101" y2="51" vector-effect="non-scaling-stroke" stroke-width="7" stroke="rgb(255,255,255)" stroke-linejoin="miter" stroke-linecap="round" stroke-miterlimit="3"/><line x1="117" y1="94.992" x2="101" y2="51" vector-effect="non-scaling-stroke" stroke-width="7" stroke="rgb(255,255,255)" stroke-linejoin="miter" stroke-linecap="round" stroke-miterlimit="3"/><line x1="93" y1="81" x2="109" y2="81" vector-effect="non-scaling-stroke" stroke-width="7" stroke="rgb(255,255,255)" stroke-linejoin="round" stroke-linecap="round" stroke-miterlimit="3"/></g></g></svg>