<?xml version="1.0" encoding="UTF-8" standalone="no"?><!-- Generator: Gravit.io --><svg xmlns="http://www.w3.org/2000/svg" xmlns:xlink="http://www.w3.org/1999/xlink" style="isolation:isolate" viewBox="0 0 175 143.093" width="175pt" height="143.093pt"><defs><clipPath id="_clipPath_R05WhD8DN5AtP9qHSkpjo9FswwFYtFOg"><rect width="175" height="143.093"/></clipPath></defs><g clip-path="url(#_clipPath_R05WhD8DN5AtP9qHSkpjo9FswwFYtFOg)"><g><mask id="_mask_MGycpRIkYeP4fp2gGviTQoIJhE5pt7cM"><path d=" M 93.519 115 L 151.425 115 C 164.436 115 175 104.436 175 91.425 L 175 23.575 C 175 10.564 164.436 0 151.425 0 L 23.575 0 C 10.564 0 0 10.564 0 23.575 L 0 91.425 C 0 104.436 10.564 115 23.575 115 L 43.164 115 L 42.623 143.093 L 73.312 126.154 L 93.519 115 Z " fill-rule="evenodd" fill="white" stroke="none"/></mask><path d=" M 93.519 115 L 151.425 115 C 164.436 115 175 104.436 175 91.425 L 175 23.575 C 175 10.564 164.436 0 151.425 0 L 23.575 0 C 10.564 0 0 10.564 0 23.575 L 0 91.425 C 0 104.436 10.564 115 23.575 115 L 43.164 115 L 42.623 143.093 L 73.312 126.154 L 93.519 115 Z " fill-rule="evenodd" fill="none"/><path d=" M 93.519 115 L 151.425 115 C 164.436 115 175 104.436 175 91.425 L 175 23.575 C 175 10.564 164.436 0 151.425 0 L 23.575 0 C 10.564 0 0 10.564 0 23.575 L 0 91.425 C 0 104.436 10.564 115 23.575 115 L 43.164 115 L 42.623 143.093 L 73.312 126.154 L 93.519 115 Z " fill-rule="evenodd" fill="none" mask="url(#_mask_MGycpRIkYeP4fp2gGviTQoIJhE5pt7cM)" vector-effect="non-scaling-stroke" stroke-width="20" stroke="rgb(255,0,0)" stroke-linejoin="miter" stroke-linecap="square" stroke-miterlimit="3"/><g><mask id="_mask_Pi3xEf8KOFb7fxNks8bgIrUkyAMtuA5t"><circle vector-effect="non-scaling-stroke" cx="87.50000000000003" cy="57.50000000000003" r="37.053663715987895" fill="white" stroke="none"/></mask><circle vector-effect="non-scaling-stroke" cx="87.50000000000003" cy="57.50000000000003" r="37.053663715987895" fill="none"/><circle vector-effect="non-scaling-stroke" cx="87.50000000000003" cy="57.50000000000003" r="37.053663715987895" fill="none" mask="url(#_mask_Pi3xEf8KOFb7fxNks8bgIrUkyAMtuA5t)" stroke-width="10" stroke="rgb(255,0,0)" stroke-linejoin="miter" stroke-linecap="butt" stroke-miterlimit="3"/><line x1="51" y1="57.5" x2="124" y2="57.5" vector-effect="non-scaling-stroke" stroke-width="3" stroke="rgb(255,0,0)" stroke-linejoin="miter" stroke-linecap="butt" stroke-miterlimit="3"/><line x1="87.5" y1="21" x2="87.5" y2="94" vector-effect="non-scaling-stroke" stroke-width="5" stroke="rgb(255,0,0)" stroke-linejoin="miter" stroke-linecap="butt" stroke-miterlimit="3"/><line x1="58.75" y1="37.554" x2="116.25" y2="37.554" vector-effect="non-scaling-stroke" stroke-width="3" stroke="rgb(255,0,0)" stroke-linejoin="miter" stroke-linecap="square" stroke-miterlimit="3"/><line x1="61" y1="77.554" x2="114" y2="77.554" vector-effect="non-scaling-stroke" stroke-width="3" stroke="rgb(255,0,0)" stroke-linejoin="miter" stroke-linecap="square" stroke-miterlimit="3"/><path d=" M 72 26 C 62.658 48.501 62.668 69.511 72 89" fill="none" vector-effect="non-scaling-stroke" stroke-width="5" stroke="rgb(255,0,0)" stroke-linejoin="miter" stroke-linecap="butt" stroke-miterlimit="3"/><path d=" M 103 26 C 112.335 46.369 112.345 67.379 103 89" fill="none" vector-effect="non-scaling-stroke" stroke-width="5" stroke="rgb(255,0,0)" stroke-linejoin="miter" stroke-linecap="butt" stroke-miterlimit="3"/></g></g></g></svg>