<?xml version="1.0" encoding="UTF-8" standalone="no"?><!-- Generator: Gravit.io --><svg xmlns="http://www.w3.org/2000/svg" xmlns:xlink="http://www.w3.org/1999/xlink" style="isolation:isolate" viewBox="0 0 175 143.093" width="175pt" height="143.093pt"><defs><clipPath id="_clipPath_sbA2GTq8irgFzmDazXVjHTimbQL3aepu"><rect width="175" height="143.093"/></clipPath></defs><g clip-path="url(#_clipPath_sbA2GTq8irgFzmDazXVjHTimbQL3aepu)"><mask id="_mask_xQPusAsLCaMJmx1elS9ILMxpTOjcwiLQ"><path d=" M 23.575 0 L 151.425 0 C 164.436 0 175 10.564 175 23.575 L 175 91.425 C 175 104.436 164.436 115 151.425 115 L 23.575 115 C 10.564 115 0 104.436 0 91.425 L 0 23.575 C 0 10.564 10.564 0 23.575 0 Z  M 67.418 143.093 L 107.582 143.093 C 109.469 143.093 111 141.562 111 139.675 L 111 137.511 C 111 135.625 109.469 134.093 107.582 134.093 L 67.418 134.093 C 65.531 134.093 64 135.625 64 137.511 L 64 139.675 C 64 141.562 65.531 143.093 67.418 143.093 Z " fill-rule="evenodd" fill="white" stroke="none"/></mask><path d=" M 23.575 0 L 151.425 0 C 164.436 0 175 10.564 175 23.575 L 175 91.425 C 175 104.436 164.436 115 151.425 115 L 23.575 115 C 10.564 115 0 104.436 0 91.425 L 0 23.575 C 0 10.564 10.564 0 23.575 0 Z  M 67.418 143.093 L 107.582 143.093 C 109.469 143.093 111 141.562 111 139.675 L 111 137.511 C 111 135.625 109.469 134.093 107.582 134.093 L 67.418 134.093 C 65.531 134.093 64 135.625 64 137.511 L 64 139.675 C 64 141.562 65.531 143.093 67.418 143.093 Z " fill-rule="evenodd" fill="none"/><path d=" M 23.575 0 L 151.425 0 C 164.436 0 175 10.564 175 23.575 L 175 91.425 C 175 104.436 164.436 115 151.425 115 L 23.575 115 C 10.564 115 0 104.436 0 91.425 L 0 23.575 C 0 10.564 10.564 0 23.575 0 Z  M 67.418 143.093 L 107.582 143.093 C 109.469 143.093 111 141.562 111 139.675 L 111 137.511 C 111 135.625 109.469 134.093 107.582 134.093 L 67.418 134.093 C 65.531 134.093 64 135.625 64 137.511 L 64 139.675 C 64 141.562 65.531 143.093 67.418 143.093 Z " fill-rule="evenodd" fill="none" mask="url(#_mask_xQPusAsLCaMJmx1elS9ILMxpTOjcwiLQ)" vector-effect="non-scaling-stroke" stroke-width="20" stroke="rgb(255,0,0)" stroke-linejoin="miter" stroke-linecap="square" stroke-miterlimit="3"/><mask id="_mask_qCPYHiidWzjOwwouah0102vGuODc8Q8s"><rect x="75" y="106" width="25" height="37.093" fill="white" stroke="none"/></mask><rect x="75" y="106" width="25" height="37.093" transform="matrix(1,0,0,1,0,0)" fill="none"/><rect x="75" y="106" width="25" height="37.093" transform="matrix(1,0,0,1,0,0)" fill="none" mask="url(#_mask_qCPYHiidWzjOwwouah0102vGuODc8Q8s)" vector-effect="non-scaling-stroke" stroke-width="16" stroke="rgb(255,0,0)" stroke-linejoin="miter" stroke-linecap="square" stroke-miterlimit="2"/><line x1="66.496" y1="88" x2="108.504" y2="24" vector-effect="non-scaling-stroke" stroke-width="8" stroke="rgb(255,0,0)" stroke-linejoin="round" stroke-linecap="round" stroke-miterlimit="3"/><g/><g><line x1="125.501" y1="81.456" x2="150.956" y2="56" vector-effect="non-scaling-stroke" stroke-width="8" stroke="rgb(255,0,0)" stroke-linejoin="round" stroke-linecap="round" stroke-miterlimit="3"/><line x1="150.956" y1="56" x2="125.501" y2="30.544" vector-effect="non-scaling-stroke" stroke-width="8" stroke="rgb(255,0,0)" stroke-linejoin="round" stroke-linecap="round" stroke-miterlimit="3"/><g><line x1="49.499" y1="30.707" x2="24.044" y2="56.163" vector-effect="non-scaling-stroke" stroke-width="8" stroke="rgb(255,0,0)" stroke-linejoin="round" stroke-linecap="round" stroke-miterlimit="3"/><line x1="24.044" y1="56.163" x2="49.499" y2="81.619" vector-effect="non-scaling-stroke" stroke-width="8" stroke="rgb(255,0,0)" stroke-linejoin="round" stroke-linecap="round" stroke-miterlimit="3"/></g></g></g></svg>