<?xml version="1.0" encoding="UTF-8" standalone="no"?><!-- Generator: Gravit.io --><svg xmlns="http://www.w3.org/2000/svg" xmlns:xlink="http://www.w3.org/1999/xlink" style="isolation:isolate" viewBox="0 0 175 143.093" width="175pt" height="143.093pt"><defs><clipPath id="_clipPath_NlA9EjBWPWSvQ1D1MRIdQLzIQMQw8Lhh"><rect width="175" height="143.093"/></clipPath></defs><g clip-path="url(#_clipPath_NlA9EjBWPWSvQ1D1MRIdQLzIQMQw8Lhh)"><mask id="_mask_zmN1QtXTgg8vfi88aYrq04EB6jKhrTay"><path d=" M 23.575 0 L 151.425 0 C 164.436 0 175 10.564 175 23.575 L 175 91.425 C 175 104.436 164.436 115 151.425 115 L 23.575 115 C 10.564 115 0 104.436 0 91.425 L 0 23.575 C 0 10.564 10.564 0 23.575 0 Z  M 67.418 143.093 L 107.582 143.093 C 109.469 143.093 111 141.562 111 139.675 L 111 137.511 C 111 135.625 109.469 134.093 107.582 134.093 L 67.418 134.093 C 65.531 134.093 64 135.625 64 137.511 L 64 139.675 C 64 141.562 65.531 143.093 67.418 143.093 Z " fill-rule="evenodd" fill="white" stroke="none"/></mask><path d=" M 23.575 0 L 151.425 0 C 164.436 0 175 10.564 175 23.575 L 175 91.425 C 175 104.436 164.436 115 151.425 115 L 23.575 115 C 10.564 115 0 104.436 0 91.425 L 0 23.575 C 0 10.564 10.564 0 23.575 0 Z  M 67.418 143.093 L 107.582 143.093 C 109.469 143.093 111 141.562 111 139.675 L 111 137.511 C 111 135.625 109.469 134.093 107.582 134.093 L 67.418 134.093 C 65.531 134.093 64 135.625 64 137.511 L 64 139.675 C 64 141.562 65.531 143.093 67.418 143.093 Z " fill-rule="evenodd" fill="none"/><path d=" M 23.575 0 L 151.425 0 C 164.436 0 175 10.564 175 23.575 L 175 91.425 C 175 104.436 164.436 115 151.425 115 L 23.575 115 C 10.564 115 0 104.436 0 91.425 L 0 23.575 C 0 10.564 10.564 0 23.575 0 Z  M 67.418 143.093 L 107.582 143.093 C 109.469 143.093 111 141.562 111 139.675 L 111 137.511 C 111 135.625 109.469 134.093 107.582 134.093 L 67.418 134.093 C 65.531 134.093 64 135.625 64 137.511 L 64 139.675 C 64 141.562 65.531 143.093 67.418 143.093 Z " fill-rule="evenodd" fill="none" mask="url(#_mask_zmN1QtXTgg8vfi88aYrq04EB6jKhrTay)" vector-effect="non-scaling-stroke" stroke-width="20" stroke="rgb(255,0,0)" stroke-linejoin="miter" stroke-linecap="square" stroke-miterlimit="3"/><mask id="_mask_xxfeCJyaQZJR9FTuDDXtCLQp5xTG9Mw4"><rect x="75" y="106" width="25" height="37.093" fill="white" stroke="none"/></mask><rect x="75" y="106" width="25" height="37.093" transform="matrix(1,0,0,1,0,0)" fill="none"/><rect x="75" y="106" width="25" height="37.093" transform="matrix(1,0,0,1,0,0)" fill="none" mask="url(#_mask_xxfeCJyaQZJR9FTuDDXtCLQp5xTG9Mw4)" vector-effect="non-scaling-stroke" stroke-width="16" stroke="rgb(255,0,0)" stroke-linejoin="miter" stroke-linecap="square" stroke-miterlimit="2"/><g/><path d="M 23.135 18 L 151.865 18 C 154.699 18 157 20.301 157 23.135 L 157 91.865 C 157 94.699 154.699 97 151.865 97 L 23.135 97 C 20.301 97 18 94.699 18 91.865 L 18 23.135 C 18 20.301 20.301 18 23.135 18 Z" style="fill:none;stroke:#000000;stroke-width:8;stroke-linecap:square;stroke-miterlimit:2;"/><mask id="_mask_77dm2ysbu9FUUfSYsojiXAEPNH0dx0ig"><rect x="18" y="34" width="139" height="63" fill="white" stroke="none"/></mask><rect x="18" y="34" width="139" height="63" transform="matrix(1,0,0,1,0,0)" fill="none"/><rect x="18" y="34" width="139" height="63" transform="matrix(1,0,0,1,0,0)" fill="none" mask="url(#_mask_77dm2ysbu9FUUfSYsojiXAEPNH0dx0ig)" vector-effect="non-scaling-stroke" stroke-width="8" stroke="rgb(255,0,0)" stroke-linejoin="miter" stroke-linecap="square" stroke-miterlimit="2"/><path d="M 143.26 25 L 148.74 25 C 149.435 25 150 25.565 150 26.26 L 150 29.74 C 150 30.435 149.435 31 148.74 31 L 143.26 31 C 142.565 31 142 30.435 142 29.74 L 142 26.26 C 142 25.565 142.565 25 143.26 25 Z" style="stroke:none;fill:#FF0000;stroke-miterlimit:10;"/><g><g><path d=" M 89.811 50.978 L 92.523 55.724 L 94.936 59.946 C 92.807 60.891 91.32 63.024 91.32 65.5 C 91.32 67.992 92.826 70.136 94.976 71.072 L 92.436 75.428 L 89.77 79.997 C 88.87 79.471 87.822 79.168 86.704 79.168 C 83.353 79.168 80.631 81.882 80.623 85.228 L 75.327 85.204 L 70.207 85.181 C 70.174 81.857 67.462 79.168 64.127 79.168 C 62.992 79.168 61.929 79.48 61.019 80.022 L 58.307 75.276 L 55.895 71.054 C 58.024 70.109 59.51 67.976 59.51 65.5 C 59.51 63.008 58.005 60.864 55.854 59.928 L 58.395 55.572 L 61.06 51.003 C 61.961 51.529 63.009 51.832 64.127 51.832 C 67.478 51.832 70.199 49.118 70.207 45.772 L 75.503 45.796 L 80.623 45.819 C 80.657 49.143 83.368 51.832 86.704 51.832 C 87.839 51.832 88.902 51.52 89.811 50.978 Z  M 66.283 65.5 C 66.283 60.466 70.375 56.379 75.415 56.379 C 80.455 56.379 84.547 60.466 84.547 65.5 C 84.547 70.534 80.455 74.621 75.415 74.621 C 70.375 74.621 66.283 70.534 66.283 65.5 Z " fill-rule="evenodd" fill="rgb(255,0,0)"/></g><g><path d=" M 118.338 49.419 L 118.766 52.551 L 119.146 55.337 C 117.8 55.383 116.541 56.205 116.006 57.533 C 115.467 58.87 115.81 60.345 116.761 61.312 L 114.456 63.098 L 112.038 64.972 C 111.669 64.495 111.173 64.106 110.573 63.864 C 108.776 63.139 106.73 64.006 106.002 65.798 L 103.167 64.64 L 100.426 63.52 C 101.127 61.73 100.255 59.702 98.466 58.98 C 97.857 58.735 97.22 58.672 96.615 58.766 L 96.187 55.634 L 95.807 52.848 C 97.153 52.802 98.411 51.98 98.947 50.652 C 99.486 49.316 99.143 47.84 98.192 46.873 L 100.497 45.087 L 102.915 43.213 C 103.283 43.69 103.78 44.079 104.38 44.321 C 106.177 45.046 108.223 44.179 108.951 42.387 L 111.786 43.545 L 114.527 44.665 C 113.826 46.455 114.698 48.483 116.487 49.205 C 117.095 49.45 117.733 49.513 118.338 49.419 Z  M 102.579 52.117 C 103.668 49.418 106.747 48.111 109.449 49.201 C 112.152 50.292 113.463 53.369 112.374 56.068 C 111.285 58.768 108.206 60.074 105.503 58.984 C 102.801 57.893 101.49 54.817 102.579 52.117 Z " fill-rule="evenodd" fill="rgb(255,0,0)"/></g><g><path d=" M 114.273 74.979 L 114.54 76.939 L 114.778 78.682 C 113.936 78.711 113.148 79.225 112.813 80.056 C 112.476 80.892 112.691 81.815 113.286 82.421 L 111.844 83.538 L 110.331 84.711 C 110.1 84.412 109.789 84.169 109.414 84.017 C 108.29 83.564 107.009 84.106 106.554 85.228 L 104.78 84.503 L 103.065 83.802 C 103.504 82.682 102.958 81.413 101.839 80.962 C 101.458 80.808 101.059 80.769 100.68 80.827 L 100.413 78.868 L 100.175 77.125 C 101.017 77.096 101.804 76.581 102.14 75.75 C 102.477 74.914 102.262 73.991 101.667 73.386 L 103.109 72.268 L 104.622 71.096 C 104.853 71.394 105.164 71.638 105.539 71.789 C 106.663 72.243 107.944 71.7 108.399 70.579 L 110.173 71.304 L 111.888 72.004 C 111.449 73.124 111.995 74.393 113.114 74.845 C 113.495 74.999 113.894 75.038 114.273 74.979 Z  M 104.412 76.667 C 105.094 74.978 107.02 74.161 108.711 74.843 C 110.402 75.525 111.222 77.45 110.541 79.139 C 109.859 80.828 107.933 81.646 106.242 80.964 C 104.551 80.281 103.731 78.356 104.412 76.667 Z " fill-rule="evenodd" fill="rgb(255,0,0)"/></g></g></g></svg>